<?xml version="1.0" encoding="UTF-8" standalone="no"?><!DOCTYPE svg PUBLIC "-//W3C//DTD SVG 1.1//EN" "http://www.w3.org/Graphics/SVG/1.1/DTD/svg11.dtd"><svg width="100%" height="100%" viewBox="0 0 162 233" version="1.1" xmlns="http://www.w3.org/2000/svg" xmlns:xlink="http://www.w3.org/1999/xlink" xml:space="preserve" xmlns:serif="http://www.serif.com/" style="fill-rule:evenodd;clip-rule:evenodd;stroke-linejoin:round;stroke-miterlimit:2;"><path d="M4.947,170.155l-3.487,26.527l7.142,0l0.369,-4.762l2.482,0l0.369,4.762l7.076,0l-3.957,-26.527l-9.994,0Zm3.99,17.071c0.169,-2.349 0.604,-6.071 1.309,-11.169c0.369,4.427 0.703,8.15 1.039,11.169l-2.348,0Z" style="fill:#111517;fill-rule:nonzero;"/><path d="M25.974,196.682l8.685,0c1.644,0 2.884,-0.1 3.723,-0.269c0.805,-0.167 1.476,-0.502 2.046,-0.938c0.57,-0.47 0.939,-1.107 1.173,-1.912c0.235,-0.804 0.336,-2.381 0.336,-4.762l0,-9.289c0,-2.515 -0.067,-4.192 -0.236,-5.064c-0.133,-0.838 -0.536,-1.643 -1.14,-2.313c-0.603,-0.705 -1.509,-1.208 -2.683,-1.51c-1.173,-0.301 -3.42,-0.47 -6.74,-0.47l-5.164,0l0,26.527Zm8.417,-21.765c0.268,0.169 0.436,0.403 0.536,0.739c0.068,0.335 0.101,1.106 0.101,2.313l0,10.329c0,1.778 -0.101,2.85 -0.335,3.253c-0.235,0.403 -0.838,0.604 -1.811,0.604l0,-17.472c0.738,0 1.241,0.067 1.509,0.234Z" style="fill:#111517;fill-rule:nonzero;"/><path d="M59.512,170.155l-0.469,4.931c-0.369,3.99 -0.739,8.517 -1.107,13.648c-0.402,-5.063 -1.006,-11.267 -1.811,-18.579l-7.277,0l3.991,26.528l10.462,0l3.489,-26.528l-7.278,0Z" style="fill:#111517;fill-rule:nonzero;"/><path d="M75.8,170.155l-3.487,26.528l7.142,0l0.369,-4.763l2.482,0l0.369,4.763l7.076,0l-3.957,-26.528l-9.994,0Zm3.99,17.071c0.169,-2.349 0.604,-6.071 1.309,-11.168c0.369,4.426 0.703,8.149 1.039,11.168l-2.348,0Z" style="fill:#111517;fill-rule:nonzero;"/><path d="M106.454,170.155l0,11.939l-3.857,-11.939l-5.767,0l0,26.528l5.767,0l0,-12.074l3.589,12.074l6.037,0l0,-26.528l-5.769,0Z" style="fill:#111517;fill-rule:nonzero;"/><path d="M136.997,179.211c0,-2.482 -0.202,-4.293 -0.637,-5.467c-0.403,-1.174 -1.275,-2.147 -2.583,-2.951c-1.341,-0.771 -3.017,-1.174 -5.03,-1.174c-1.508,0 -2.817,0.268 -3.99,0.772c-1.141,0.503 -2.046,1.206 -2.683,2.078c-0.671,0.873 -1.04,1.811 -1.174,2.75c-0.135,0.973 -0.201,2.415 -0.201,4.293l0,7.78c0,2.583 0.201,4.528 0.637,5.836c0.436,1.274 1.308,2.28 2.616,3.017c1.307,0.739 2.951,1.108 4.997,1.108c1.944,0 3.554,-0.437 4.895,-1.309c1.342,-0.838 2.181,-1.878 2.582,-3.018c0.369,-1.14 0.571,-3.085 0.571,-5.835l0,-1.039l-6.908,0l0,3.353c0,1.442 -0.068,2.381 -0.235,2.75c-0.168,0.403 -0.504,0.604 -1.006,0.604c-0.537,0 -0.872,-0.201 -1.006,-0.604c-0.168,-0.369 -0.235,-1.207 -0.235,-2.516l0,-12.307c0,-1.341 0.067,-2.212 0.235,-2.615c0.134,-0.403 0.503,-0.604 1.073,-0.604c0.503,0 0.805,0.167 0.939,0.503c0.167,0.335 0.235,1.173 0.235,2.515l0,4.594l6.908,0l0,-2.514Z" style="fill:#111517;fill-rule:nonzero;"/><path d="M145.38,196.683l11.973,0l0,-5.3l-5.064,0l0,-5.835l4.292,0l0,-5.03l-4.292,0l0,-5.064l4.593,0l0,-5.298l-11.502,0l0,26.527Z" style="fill:#111517;fill-rule:nonzero;"/><path d="M7.508,207.068c-0.212,-0.601 -0.636,-1.077 -1.29,-1.467c-0.653,-0.388 -1.43,-0.582 -2.331,-0.582c-0.92,0 -1.697,0.194 -2.333,0.582c-0.653,0.39 -1.06,0.831 -1.254,1.325c-0.194,0.495 -0.3,1.237 -0.3,2.209l0,3.251c0,1.113 0.123,1.978 0.353,2.579c0.247,0.618 0.654,1.077 1.237,1.413c0.565,0.336 1.343,0.513 2.332,0.513c0.777,0 1.43,-0.125 1.943,-0.371c0.53,-0.248 0.954,-0.601 1.29,-1.078c0.318,-0.477 0.512,-0.954 0.565,-1.413c0.071,-0.46 0.106,-1.131 0.106,-2.05l-3.109,0l0,1.361c0,0.582 -0.035,0.989 -0.124,1.201c-0.088,0.212 -0.247,0.318 -0.495,0.318c-0.194,0 -0.353,-0.106 -0.459,-0.3c-0.106,-0.212 -0.159,-0.512 -0.159,-0.919l0,-5.406c0,-0.495 0.035,-0.83 0.106,-0.972c0.071,-0.14 0.212,-0.211 0.424,-0.211c0.194,0 0.336,0.088 0.424,0.247c0.071,0.158 0.106,0.477 0.106,0.936l0,1.325l3.286,0c0,-1.078 -0.106,-1.908 -0.318,-2.491Z" style="fill:#1475bb;fill-rule:nonzero;"/><path d="M23.613,207.439c-0.106,-0.406 -0.317,-0.778 -0.618,-1.166c-0.3,-0.371 -0.742,-0.672 -1.289,-0.901c-0.566,-0.23 -1.237,-0.353 -2.014,-0.353c-0.937,0 -1.696,0.177 -2.297,0.547c-0.601,0.354 -1.008,0.849 -1.237,1.431c-0.23,0.601 -0.353,1.431 -0.353,2.509l0,2.933c0,0.972 0.071,1.696 0.194,2.19c0.123,0.478 0.336,0.902 0.636,1.237c0.282,0.336 0.706,0.601 1.236,0.777c0.53,0.159 1.185,0.248 1.961,0.248c0.689,0 1.308,-0.106 1.838,-0.3c0.53,-0.195 0.954,-0.513 1.307,-0.919c0.336,-0.425 0.548,-0.866 0.654,-1.343c0.107,-0.495 0.159,-1.237 0.159,-2.279l0,-2.809c0,-0.794 -0.052,-1.413 -0.177,-1.802Zm-3.303,6.237c0,0.494 -0.036,0.812 -0.106,0.953c-0.053,0.159 -0.195,0.23 -0.407,0.23c-0.194,0 -0.336,-0.088 -0.406,-0.247c-0.07,-0.16 -0.106,-0.513 -0.106,-1.06l0,-5.159c0,-0.601 0.036,-0.954 0.106,-1.113c0.07,-0.158 0.212,-0.229 0.406,-0.229c0.212,0 0.354,0.071 0.425,0.229c0.052,0.159 0.088,0.512 0.088,1.113l0,5.283Z" style="fill:#1475bb;fill-rule:nonzero;"/><path d="M32.009,205.231l0,11.448l3.48,0l0,-7.738c0,-0.866 0.036,-1.396 0.089,-1.59c0.07,-0.195 0.23,-0.3 0.477,-0.3c0.229,0 0.388,0.088 0.442,0.265c0.052,0.159 0.07,0.653 0.07,1.43l0,7.933l3.481,0l0,-8.021c0,-1.006 -0.054,-1.713 -0.16,-2.155c-0.105,-0.424 -0.353,-0.777 -0.741,-1.06c-0.372,-0.283 -0.866,-0.424 -1.467,-0.424c-0.477,0 -0.901,0.106 -1.254,0.317c-0.371,0.213 -0.689,0.53 -0.937,0.955l0.054,-1.06l-3.534,0Z" style="fill:#1475bb;fill-rule:nonzero;"/><path d="M55.434,208.216c0,-0.564 -0.034,-0.989 -0.088,-1.271c-0.071,-0.265 -0.23,-0.549 -0.512,-0.866c-0.283,-0.318 -0.707,-0.583 -1.237,-0.778c-0.53,-0.194 -1.166,-0.282 -1.926,-0.282c-0.759,0 -1.431,0.123 -2.013,0.353c-0.584,0.229 -0.99,0.565 -1.237,1.007c-0.23,0.442 -0.353,1.113 -0.353,2.032c0,0.635 0.105,1.201 0.336,1.661c0.229,0.476 0.847,0.989 1.872,1.572c1.218,0.671 1.89,1.078 2.013,1.218c0.125,0.142 0.195,0.478 0.195,1.025c0,0.407 -0.053,0.654 -0.141,0.778c-0.106,0.123 -0.265,0.194 -0.513,0.194c-0.229,0 -0.388,-0.088 -0.459,-0.282c-0.088,-0.177 -0.123,-0.566 -0.123,-1.185l0,-0.724l-3.092,0l0,0.548c0,0.954 0.123,1.678 0.353,2.138c0.229,0.477 0.671,0.848 1.289,1.13c0.636,0.265 1.396,0.407 2.28,0.407c0.795,0 1.484,-0.123 2.049,-0.388c0.566,-0.248 0.972,-0.619 1.219,-1.096c0.23,-0.477 0.353,-1.166 0.353,-2.103c0,-0.83 -0.159,-1.466 -0.476,-1.907c-0.319,-0.442 -0.972,-0.901 -1.979,-1.396c-0.76,-0.389 -1.255,-0.671 -1.502,-0.866c-0.248,-0.194 -0.388,-0.371 -0.442,-0.53c-0.052,-0.177 -0.071,-0.423 -0.071,-0.777c0,-0.265 0.054,-0.46 0.142,-0.583c0.106,-0.123 0.248,-0.194 0.442,-0.194c0.247,0 0.388,0.071 0.459,0.211c0.053,0.142 0.088,0.478 0.088,1.008l0,0.618l3.074,0l0,-0.672Z" style="fill:#1475bb;fill-rule:nonzero;"/><path d="M68.184,205.231l0,7.702c0,0.937 -0.017,1.502 -0.07,1.661c-0.054,0.177 -0.212,0.265 -0.46,0.265c-0.247,0 -0.389,-0.088 -0.441,-0.247c-0.054,-0.177 -0.089,-0.707 -0.089,-1.591l0,-7.79l-3.48,0l0,7.721c0,0.989 0.018,1.642 0.053,1.978c0.053,0.336 0.142,0.653 0.318,0.954c0.158,0.3 0.406,0.548 0.759,0.724c0.336,0.194 0.778,0.283 1.308,0.283c0.459,0 0.866,-0.106 1.219,-0.283c0.353,-0.194 0.636,-0.495 0.883,-0.883l-0.053,0.954l3.533,0l0,-11.448l-3.48,0Z" style="fill:#1475bb;fill-rule:nonzero;"/><rect x="79.994" y="202.705" width="3.587" height="13.974" style="fill:#1475bb;fill-rule:nonzero;"/><path d="M92.076,203.711l0,1.803l-0.742,0l0,1.819l0.742,0l0,5.813c0,1.131 0.036,1.855 0.088,2.155c0.071,0.318 0.23,0.583 0.495,0.83c0.247,0.23 0.548,0.389 0.901,0.441c0.336,0.071 0.901,0.107 1.696,0.107l1.413,0l0,-1.837c-0.583,0 -0.918,-0.035 -0.989,-0.124c-0.088,-0.088 -0.124,-0.512 -0.124,-1.272l0,-6.113l0.972,0l0,-1.819l-0.972,0l0,-1.803l-3.48,0Z" style="fill:#1475bb;fill-rule:nonzero;"/><path d="M107.459,208.464c0,-0.636 0.035,-1.025 0.088,-1.183c0.052,-0.159 0.212,-0.23 0.442,-0.23c0.211,0 0.353,0.088 0.441,0.265c0.089,0.194 0.141,0.582 0.141,1.183c0,0.478 -0.035,0.795 -0.123,0.937c-0.071,0.159 -0.689,0.459 -1.838,0.918c-1.077,0.407 -1.748,0.778 -2.013,1.077c-0.265,0.319 -0.407,0.902 -0.407,1.75l0,0.954c0,1.148 0.248,1.908 0.76,2.243c0.512,0.336 1.078,0.513 1.678,0.513c0.477,0 0.866,-0.106 1.201,-0.3c0.336,-0.213 0.619,-0.53 0.83,-0.937l0,1.025l3.393,0l0,-5.742c0,-1.908 -0.053,-3.145 -0.177,-3.763c-0.124,-0.6 -0.477,-1.112 -1.077,-1.537c-0.601,-0.406 -1.484,-0.618 -2.669,-0.618c-0.989,0 -1.784,0.177 -2.402,0.547c-0.618,0.371 -1.024,0.795 -1.237,1.273c-0.194,0.494 -0.3,1.166 -0.3,2.049l0,0.777l3.269,0l0,-1.201Zm1.112,5.123c0,0.583 -0.035,0.936 -0.106,1.078c-0.052,0.123 -0.211,0.194 -0.424,0.194c-0.229,0 -0.388,-0.088 -0.459,-0.265c-0.088,-0.159 -0.123,-0.547 -0.123,-1.148c0,-0.513 0.052,-0.901 0.14,-1.184c0.089,-0.282 0.407,-0.618 0.972,-1.025l0,2.35Z" style="fill:#1475bb;fill-rule:nonzero;"/><path d="M120.319,205.231l0,11.448l3.48,0l0,-7.738c0,-0.865 0.035,-1.395 0.088,-1.59c0.071,-0.195 0.23,-0.3 0.477,-0.3c0.23,0 0.389,0.088 0.441,0.265c0.054,0.159 0.071,0.653 0.071,1.43l0,7.933l3.48,0l0,-8.021c0,-1.006 -0.052,-1.713 -0.158,-2.155c-0.107,-0.424 -0.353,-0.777 -0.743,-1.06c-0.37,-0.282 -0.865,-0.424 -1.465,-0.424c-0.478,0 -0.901,0.106 -1.255,0.318c-0.371,0.212 -0.689,0.53 -0.936,0.954l0.053,-1.06l-3.533,0Z" style="fill:#1475bb;fill-rule:nonzero;"/><path d="M144.026,207.068c-0.212,-0.601 -0.635,-1.077 -1.29,-1.466c-0.653,-0.389 -1.431,-0.583 -2.331,-0.583c-0.919,0 -1.696,0.194 -2.332,0.583c-0.654,0.389 -1.06,0.83 -1.255,1.325c-0.194,0.494 -0.3,1.237 -0.3,2.209l0,3.25c0,1.113 0.123,1.979 0.353,2.579c0.248,0.618 0.653,1.078 1.237,1.413c0.565,0.336 1.342,0.513 2.332,0.513c0.777,0 1.43,-0.123 1.943,-0.371c0.53,-0.248 0.954,-0.601 1.29,-1.078c0.317,-0.477 0.513,-0.954 0.565,-1.413c0.071,-0.459 0.106,-1.131 0.106,-2.049l-3.109,0l0,1.36c0,0.583 -0.035,0.989 -0.124,1.202c-0.088,0.211 -0.247,0.317 -0.495,0.317c-0.194,0 -0.353,-0.106 -0.459,-0.3c-0.106,-0.212 -0.159,-0.512 -0.159,-0.919l0,-5.406c0,-0.494 0.036,-0.83 0.106,-0.972c0.071,-0.14 0.212,-0.211 0.424,-0.211c0.194,0 0.336,0.088 0.424,0.247c0.071,0.159 0.106,0.477 0.106,0.936l0,1.325l3.286,0c0,-1.078 -0.106,-1.907 -0.318,-2.491Z" style="fill:#1475bb;fill-rule:nonzero;"/><path d="M156.564,205.231l-0.549,7.738l-1.148,-7.738l-3.162,0l1.908,9.576c0.142,0.706 0.212,1.095 0.212,1.2c0,0.177 -0.07,0.301 -0.23,0.354c-0.159,0.053 -0.495,0.088 -1.042,0.088l0,1.838l2.102,0c0.972,0 1.679,-0.071 2.12,-0.212c0.442,-0.159 0.778,-0.389 1.026,-0.689c0.246,-0.319 0.423,-0.707 0.53,-1.184c0.105,-0.477 0.229,-1.378 0.388,-2.685l1.006,-8.286l-3.161,0Z" style="fill:#1475bb;fill-rule:nonzero;"/><path d="M2.059,232.507l0.923,0l0,-3.097l0.87,0c0.838,0.032 1.22,0.402 1.432,1.389c0.202,0.891 0.361,1.506 0.477,1.708l0.956,0c-0.149,-0.276 -0.319,-0.965 -0.552,-1.962c-0.171,-0.743 -0.499,-1.252 -1.051,-1.442l0,-0.032c0.753,-0.255 1.348,-0.882 1.348,-1.825c0,-0.552 -0.202,-1.04 -0.563,-1.357c-0.445,-0.404 -1.082,-0.584 -2.068,-0.584c-0.637,0 -1.305,0.053 -1.772,0.148l0,7.054Zm0.923,-6.407c0.149,-0.042 0.467,-0.085 0.913,-0.085c0.976,0.011 1.643,0.414 1.643,1.337c0,0.817 -0.625,1.357 -1.611,1.357l-0.945,0l0,-2.609Z" style="fill:#111517;fill-rule:nonzero;"/><path d="M17.207,230.11c0.01,-0.095 0.032,-0.244 0.032,-0.435c0,-0.944 -0.446,-2.418 -2.121,-2.418c-1.497,0 -2.409,1.219 -2.409,2.768c0,1.549 0.944,2.588 2.525,2.588c0.816,0 1.379,-0.169 1.708,-0.318l-0.159,-0.669c-0.351,0.149 -0.753,0.266 -1.422,0.266c-0.934,0 -1.74,-0.519 -1.76,-1.782l3.606,0Zm-3.596,-0.668c0.074,-0.648 0.488,-1.518 1.432,-1.518c1.05,0 1.304,0.924 1.294,1.518l-2.726,0Z" style="fill:#111517;fill-rule:nonzero;"/><path d="M24.717,232.508l0,-4.424l2.058,0l0,4.424l0.922,0l0,-5.135l-2.98,0l0,-0.255c0,-0.816 0.286,-1.506 1.273,-1.506c0.456,0 0.859,0.138 1.082,0.297l0.265,-0.711c-0.265,-0.191 -0.827,-0.339 -1.305,-0.339c-1.442,0 -2.238,0.881 -2.238,2.239l0,0.275l-0.721,0l0,0.711l0.721,0l0,4.424l0.923,0Z" style="fill:#111517;fill-rule:nonzero;"/><path d="M34.549,232.508l0.934,0l0,-3.088c0,-0.158 0.022,-0.317 0.064,-0.434c0.159,-0.52 0.637,-0.955 1.251,-0.955c0.881,0 1.188,0.689 1.188,1.516l0,2.961l0.934,0l0,-3.066c0,-1.761 -1.103,-2.185 -1.814,-2.185c-0.849,0 -1.442,0.476 -1.697,0.965l-0.022,0l-0.053,-0.849l-0.827,0c0.032,0.424 0.042,0.86 0.042,1.39l0,3.745Z" style="fill:#111517;fill-rule:nonzero;"/><path d="M49.866,230.11c0.012,-0.095 0.032,-0.244 0.032,-0.435c0,-0.944 -0.445,-2.418 -2.121,-2.418c-1.496,0 -2.408,1.219 -2.408,2.768c0,1.549 0.944,2.588 2.525,2.588c0.817,0 1.379,-0.169 1.707,-0.318l-0.159,-0.669c-0.35,0.149 -0.753,0.266 -1.422,0.266c-0.932,0 -1.739,-0.519 -1.76,-1.782l3.606,0Zm-3.595,-0.668c0.074,-0.648 0.488,-1.518 1.432,-1.518c1.05,0 1.305,0.924 1.294,1.518l-2.726,0Z" style="fill:#111517;fill-rule:nonzero;"/><path d="M65.979,232.508l0,-3.045l2.398,-4.105l-1.051,0l-1.028,1.973c-0.277,0.541 -0.52,1.007 -0.722,1.475l-0.021,0c-0.223,-0.499 -0.436,-0.934 -0.711,-1.475l-1.007,-1.973l-1.051,0l2.259,4.115l0,3.035l0.934,0Z" style="fill:#111517;fill-rule:nonzero;"/><path d="M75.834,227.257c-1.422,0 -2.547,1.007 -2.547,2.726c0,1.623 1.072,2.641 2.461,2.641c1.242,0 2.557,-0.827 2.557,-2.726c0,-1.57 -0.997,-2.641 -2.471,-2.641Zm-0.022,0.699c1.103,0 1.539,1.103 1.539,1.973c0,1.157 -0.669,1.995 -1.559,1.995c-0.914,0 -1.56,-0.848 -1.56,-1.973c0,-0.976 0.477,-1.995 1.58,-1.995Z" style="fill:#111517;fill-rule:nonzero;"/><path d="M89.082,227.374l-0.933,0l0,3.15c0,0.17 -0.032,0.339 -0.085,0.477c-0.169,0.414 -0.605,0.848 -1.231,0.848c-0.848,0 -1.145,-0.657 -1.145,-1.633l0,-2.842l-0.933,0l0,3.001c0,1.804 0.965,2.249 1.77,2.249c0.913,0 1.454,-0.541 1.698,-0.955l0.021,0l0.053,0.839l0.828,0c-0.032,-0.404 -0.043,-0.87 -0.043,-1.4l0,-3.734Z" style="fill:#111517;fill-rule:nonzero;"/><path d="M95.933,232.508l0.923,0l0,-2.738c0,-0.158 0.021,-0.307 0.043,-0.434c0.127,-0.701 0.593,-1.199 1.252,-1.199c0.127,0 0.223,0.01 0.318,0.032l0,-0.88c-0.085,-0.022 -0.159,-0.032 -0.266,-0.032c-0.626,0 -1.187,0.434 -1.421,1.125l-0.043,0l-0.032,-1.008l-0.816,0c0.032,0.476 0.042,0.996 0.042,1.601l0,3.533Z" style="fill:#111517;fill-rule:nonzero;"/><path d="M111.93,232.157c0.382,0.255 1.135,0.456 1.824,0.456c1.687,0 2.503,-0.954 2.503,-2.057c0,-1.051 -0.615,-1.634 -1.824,-2.101c-0.986,-0.382 -1.422,-0.71 -1.422,-1.379c0,-0.488 0.372,-1.071 1.348,-1.071c0.647,0 1.124,0.212 1.358,0.34l0.254,-0.753c-0.318,-0.181 -0.849,-0.35 -1.58,-0.35c-1.39,0 -2.313,0.826 -2.313,1.941c0,1.007 0.722,1.611 1.889,2.025c0.964,0.372 1.346,0.753 1.346,1.422c0,0.721 -0.551,1.22 -1.495,1.22c-0.637,0 -1.241,-0.212 -1.655,-0.467l-0.233,0.774Z" style="fill:#111517;fill-rule:nonzero;"/><path d="M123.714,224.977l-0.922,0l0,7.531l0.922,0l0,-1.931l0.478,-0.53l1.772,2.461l1.135,0l-2.26,-3.023l1.984,-2.111l-1.125,0l-1.506,1.771c-0.149,0.18 -0.329,0.403 -0.456,0.583l-0.022,0l0,-4.751Z" style="fill:#111517;fill-rule:nonzero;"/><path d="M134.183,232.508l0,-5.134l-0.934,0l0,5.134l0.934,0Zm-0.466,-7.161c-0.34,0 -0.584,0.255 -0.584,0.584c0,0.318 0.234,0.573 0.562,0.573c0.372,0 0.605,-0.255 0.594,-0.573c0,-0.329 -0.222,-0.584 -0.572,-0.584Z" style="fill:#111517;fill-rule:nonzero;"/><rect x="141.036" y="224.977" width="0.933" height="7.531" style="fill:#111517;fill-rule:nonzero;"/><rect x="148.843" y="224.977" width="0.934" height="7.531" style="fill:#111517;fill-rule:nonzero;"/><path d="M156.29,232.263c0.36,0.213 0.88,0.35 1.442,0.35c1.22,0 1.919,-0.635 1.919,-1.537c0,-0.764 -0.456,-1.209 -1.346,-1.549c-0.669,-0.255 -0.976,-0.446 -0.976,-0.87c0,-0.381 0.307,-0.7 0.859,-0.7c0.477,0 0.848,0.17 1.049,0.297l0.235,-0.679c-0.287,-0.169 -0.743,-0.318 -1.263,-0.318c-1.103,0 -1.772,0.679 -1.772,1.507c0,0.615 0.436,1.123 1.358,1.452c0.69,0.255 0.955,0.499 0.955,0.944c0,0.425 -0.318,0.764 -0.997,0.764c-0.467,0 -0.955,-0.191 -1.23,-0.371l-0.233,0.71Z" style="fill:#111517;fill-rule:nonzero;"/><path d="M65.394,161.704l-2.248,0c-0.107,-0.298 -0.311,-0.574 -0.276,-0.815c0.422,-2.868 0.851,-5.736 1.331,-8.595c2.288,-13.635 4.585,-27.269 6.891,-40.901c2.629,-15.539 5.274,-31.076 7.904,-46.614c0.469,-2.764 0.89,-5.538 1.359,-8.302c0.277,-1.628 0.855,-2.153 2.459,-2.312c0.383,-0.038 0.776,-0.045 1.159,-0.013c1.596,0.133 2.25,0.675 2.534,2.25c0.478,2.665 0.887,5.341 1.335,8.011c1.827,10.87 3.656,21.74 5.486,32.609c1.655,9.82 3.312,19.639 4.968,29.46c1.658,9.819 3.321,19.638 4.974,29.459c0.302,1.795 0.568,3.596 0.844,5.354c-0.93,0.699 -1.748,0.562 -2.72,0.207c-0.442,-0.86 -0.94,-1.79 -1.405,-2.736c-4.261,-8.681 -8.515,-17.366 -12.78,-26.044c-0.51,-1.041 -1.098,-2.044 -1.605,-3.087c-0.851,-1.745 -3.479,-1.672 -4.276,-0.085c-0.477,0.949 -1.029,1.862 -1.498,2.816c-4.305,8.766 -8.6,17.538 -12.901,26.307c-0.466,0.95 -0.956,1.888 -1.535,3.031Z" style="fill:#8bc63f;fill-rule:nonzero;"/><path d="M129.78,38.07c0.478,0.651 0.852,1.17 1.239,1.678c1.762,2.314 3.282,4.77 4.333,7.494c0.21,0.54 0.397,1.097 0.51,1.664c0.299,1.496 -0.46,2.77 -1.84,3.173c-1.345,0.392 -2.802,-0.331 -3.12,-1.836c-0.403,-1.914 -1.176,-3.673 -1.836,-5.487c-1.097,-3.016 -3.331,-5.17 -5.511,-7.361c-0.308,-0.309 -0.851,-0.52 -1.295,-0.537c-2.511,-0.097 -5.032,-0.211 -7.51,0.381c-0.149,0.036 -0.261,0.226 -0.538,0.479c0.674,0.663 1.294,1.388 2.027,1.974c2.196,1.761 3.37,4.194 4.503,6.661c0.384,0.837 0.376,1.704 -0.099,2.509c-0.968,1.645 -3.27,1.66 -4.334,-0.022c-0.457,-0.724 -0.769,-1.563 -1.019,-2.389c-0.922,-3.029 -3.128,-5.062 -5.412,-7.014c-1.011,-0.862 -2.19,-1.074 -3.533,-0.607c-1.725,0.599 -3.49,1.074 -5.324,2.056c0.404,0.571 0.678,1.032 1.026,1.428c0.574,0.653 1.238,1.23 1.782,1.906c0.354,0.44 0.647,0.971 0.815,1.509c0.315,0.998 -0.083,2.039 -0.861,2.572c-0.878,0.601 -2.119,0.522 -2.924,-0.298c-0.465,-0.473 -0.772,-1.1 -1.172,-1.64c-0.85,-1.151 -1.584,-2.423 -3.03,-3.117c-0.696,0.435 -1.342,0.843 -1.994,1.242c-2.224,1.366 -4.453,2.724 -6.675,4.096c-3.001,1.849 -6.007,1.894 -9.024,0.045c-2.308,-1.415 -4.619,-2.826 -6.926,-4.242c-0.572,-0.352 -1.136,-0.717 -1.754,-1.108c-1.5,0.551 -2.185,1.884 -3.075,2.984c-0.424,0.521 -0.7,1.168 -1.153,1.656c-0.814,0.877 -1.978,1.009 -2.902,0.433c-0.918,-0.57 -1.366,-1.695 -0.894,-2.79c0.333,-0.776 0.913,-1.458 1.445,-2.134c0.641,-0.813 1.624,-1.35 2.061,-2.485c-1.96,-1.218 -4.09,-1.849 -6.247,-2.3c-0.659,-0.138 -1.592,0.158 -2.155,0.581c-2.332,1.75 -4.449,3.728 -5.556,6.538c-0.389,0.989 -0.673,2.036 -1.186,2.956c-0.97,1.746 -3.261,1.845 -4.321,0.253c-0.523,-0.786 -0.575,-1.665 -0.217,-2.5c1.034,-2.405 2.153,-4.762 4.216,-6.512c0.798,-0.678 1.546,-1.415 2.254,-2.066c-0.162,-0.824 -0.745,-0.789 -1.156,-0.814c-2.122,-0.126 -4.249,-0.187 -6.373,-0.273c-0.829,-0.033 -1.473,0.318 -2.065,0.877c-3.317,3.13 -5.585,6.877 -6.714,11.302c-0.095,0.373 -0.091,0.776 -0.205,1.141c-0.466,1.495 -1.752,2.317 -3.075,1.995c-1.488,-0.36 -2.39,-1.749 -1.921,-3.365c0.426,-1.472 1.003,-2.939 1.764,-4.264c1.241,-2.163 2.686,-4.209 4.136,-6.446c-0.481,0.037 -0.924,0.025 -1.346,0.115c-0.66,0.14 -1.324,0.304 -1.956,0.539c-1.709,0.638 -3.799,0.776 -4.962,2.218c-1.859,2.308 -3.826,4.646 -4.309,7.768c-0.28,1.81 -0.643,3.607 -0.967,5.41c-0.018,0.096 -0.018,0.193 -0.036,0.288c-0.222,1.157 -1.176,2.004 -2.18,1.936c-1.019,-0.069 -2.005,-0.954 -1.998,-2.126c0.008,-1.335 0.248,-2.676 0.476,-3.999c0.192,-1.118 0.934,-2.132 0.652,-3.598c-0.622,0.501 -1.169,0.848 -1.601,1.304c-2.953,3.11 -5.301,6.649 -7.34,10.407c-0.414,0.763 -0.795,1.56 -1.32,2.244c-0.812,1.057 -2.026,1.324 -3.1,0.821c-1.229,-0.576 -1.833,-1.779 -1.507,-3.115c0.113,-0.464 0.316,-0.915 0.534,-1.343c2.838,-5.557 6.337,-10.632 10.922,-14.91c5.16,-4.815 11.313,-7.727 18.123,-9.293c11.313,-2.603 22.317,-1.425 32.949,3.097c4.207,1.789 8.022,4.263 11.163,7.673c0.991,1.075 2.105,1.953 3.693,2.084c1.893,0.157 3.366,-0.528 4.678,-1.832c1.231,-1.223 2.477,-2.455 3.85,-3.507c5.493,-4.214 11.81,-6.533 18.544,-7.824c9.218,-1.768 18.283,-1.325 27.167,1.87c5.561,2.001 10.4,5.087 14.505,9.344c3.798,3.938 6.794,8.426 9.272,13.277c0.219,0.431 0.433,0.874 0.564,1.334c0.335,1.171 -0.162,2.342 -1.219,2.997c-1.025,0.634 -2.324,0.527 -3.173,-0.431c-0.568,-0.639 -0.984,-1.427 -1.392,-2.19c-1.834,-3.423 -3.924,-6.672 -6.488,-9.598c-0.688,-0.784 -1.451,-1.501 -2.329,-2.404c-0.555,1.078 -0.162,1.845 0.076,2.606c0.434,1.386 0.895,2.758 0.839,4.246c-0.065,1.779 -0.901,2.91 -2.188,2.874c-1.156,-0.033 -1.875,-0.979 -2.138,-2.648c-0.301,-1.908 -0.567,-3.832 -1.053,-5.696c-0.412,-1.581 -1.305,-2.977 -2.118,-4.414c-1.559,-2.761 -3.938,-4.133 -6.863,-4.807c-1.112,-0.257 -2.165,-0.85 -3.589,-0.693Z" style="fill:#87a03b;fill-rule:nonzero;"/><path d="M83.546,37.784c0.354,-0.902 0.669,-1.672 0.961,-2.451c1.627,-4.349 3.271,-8.686 5.483,-12.787c6.088,-11.283 15.349,-18.478 27.795,-21.519c5.451,-1.332 10.93,-1.455 16.322,0.326c1.642,0.542 3.205,1.342 4.767,2.099c0.597,0.288 1.152,0.726 1.622,1.198c0.837,0.84 0.972,1.953 0.472,2.941c-0.547,1.083 -1.675,1.671 -2.912,1.358c-0.734,-0.186 -1.424,-0.579 -2.105,-0.933c-3.693,-1.918 -6.841,-2.631 -10.877,-2.436c-0.248,0.416 -0.1,0.712 0.303,0.893c2.353,1.055 3.624,3.124 4.872,5.204c0.244,0.405 0.41,0.881 0.501,1.346c0.222,1.142 -0.37,2.147 -1.432,2.546c-0.881,0.331 -1.833,-0.076 -2.439,-1.054c-0.101,-0.163 -0.162,-0.35 -0.244,-0.526c-2.135,-4.545 -1.905,-3.407 -5.544,-5.538c-2.152,-1.261 -4.616,-1.273 -7.029,-0.584c-0.258,0.074 -0.467,0.313 -0.68,0.461c-0.153,0.673 0.401,0.844 0.732,1.12c1.652,1.383 3.016,3.001 4.014,4.909c0.307,0.587 0.581,1.244 0.651,1.892c0.12,1.146 -0.363,2.066 -1.434,2.618c-1.003,0.517 -2.14,0.46 -2.942,-0.402c-0.571,-0.612 -0.988,-1.418 -1.305,-2.206c-0.51,-1.265 -1.006,-2.502 -2.059,-3.444c-1.662,-1.488 -3.695,-1.649 -5.536,-0.326c-0.862,0.62 -1.671,1.316 -2.474,2.013c-0.427,0.368 -0.789,0.812 -1.265,1.31c0.565,1.019 1.396,1.66 2.177,2.358c0.498,0.444 0.993,0.929 1.349,1.486c0.525,0.818 0.335,1.964 -0.314,2.69c-0.72,0.806 -1.988,1.076 -2.9,0.497c-0.556,-0.354 -1.011,-0.878 -1.482,-1.356c-0.473,-0.482 -0.897,-1.009 -1.368,-1.492c-0.126,-0.13 -0.343,-0.169 -0.675,-0.321c-1.595,1.362 -2.541,3.224 -3.525,5.199c1.314,0.715 2.633,1.376 3.229,2.816c0.184,0.445 0.405,0.887 0.506,1.352c0.186,0.849 -0.333,1.712 -1.186,2.104c-0.702,0.322 -1.58,0.174 -2.112,-0.453c-0.369,-0.437 -0.583,-1.006 -0.952,-1.445c-0.285,-0.338 -0.702,-0.565 -1.228,-0.97c-0.487,1.043 -0.94,1.888 -1.284,2.775c-1.014,2.614 -2.008,5.235 -2.963,7.871c-0.674,1.859 -1.707,3.478 -3.152,4.803c-1.754,1.608 -3.106,1.62 -4.847,0.036c-1.525,-1.387 -2.587,-3.097 -3.299,-5.046c-0.994,-2.724 -2.047,-5.428 -3.105,-8.127c-0.274,-0.7 -0.663,-1.353 -1.094,-2.219c-0.496,0.374 -0.91,0.595 -1.197,0.926c-0.376,0.432 -0.603,0.994 -0.982,1.423c-0.545,0.619 -1.425,0.745 -2.118,0.403c-0.849,-0.421 -1.317,-1.252 -1.106,-2.148c0.297,-1.257 0.928,-2.338 1.991,-3.108c0.463,-0.335 0.982,-0.593 1.599,-0.957c-0.781,-2.026 -1.878,-3.751 -3.477,-5.343c-0.519,0.441 -0.976,0.778 -1.368,1.179c-0.405,0.413 -0.718,0.915 -1.121,1.331c-1.275,1.323 -2.737,1.439 -3.808,0.333c-1.072,-1.107 -0.926,-2.483 0.432,-3.811c0.413,-0.405 0.9,-0.734 1.327,-1.125c0.356,-0.325 0.686,-0.683 0.999,-1.05c0.113,-0.133 0.142,-0.338 0.294,-0.724c-1.215,-1.371 -2.648,-2.654 -4.312,-3.616c-1.452,-0.841 -2.978,-0.664 -4.361,0.3c-0.975,0.678 -1.676,1.601 -2.125,2.7c-0.293,0.716 -0.489,1.474 -0.822,2.169c-0.818,1.706 -2.344,2.348 -3.783,1.652c-1.493,-0.724 -2.013,-2.262 -1.224,-3.941c0.915,-1.948 2.246,-3.606 3.825,-5.062c0.421,-0.388 0.867,-0.752 1.248,-1.081c-0.017,-0.897 -0.66,-1.031 -1.175,-1.112c-2.324,-0.366 -4.621,-0.366 -6.756,0.839c-0.505,0.285 -0.966,0.673 -1.498,0.88c-1.556,0.607 -2.476,1.799 -3.17,3.231c-0.337,0.695 -0.62,1.423 -1.024,2.076c-0.5,0.809 -1.485,1.135 -2.263,0.837c-0.895,-0.343 -1.508,-0.991 -1.438,-1.959c0.053,-0.74 0.257,-1.54 0.633,-2.172c1.238,-2.089 2.602,-4.095 4.966,-5.116c0.122,-0.052 0.155,-0.312 0.234,-0.484c-0.153,-0.529 -0.618,-0.365 -0.949,-0.363c-3.543,0.02 -6.899,0.801 -10.031,2.495c-0.676,0.365 -1.363,0.759 -2.093,0.96c-1.237,0.341 -2.42,-0.226 -2.962,-1.267c-0.526,-1.013 -0.331,-2.385 0.591,-3.183c0.651,-0.562 1.411,-1.017 2.171,-1.429c5.41,-2.935 11.241,-3.617 17.19,-2.629c12.82,2.133 22.819,8.647 29.652,19.813c2.739,4.48 4.662,9.333 6.493,14.23c0.398,1.066 0.524,2.273 1.525,3.317Z" style="fill:#aed14f;fill-rule:nonzero;"/><path d="M118.183,76.975c-0.282,1.036 -0.382,1.804 -0.699,2.469c-0.407,0.854 -0.876,1.731 -1.522,2.405c-0.814,0.851 -1.981,0.876 -2.946,0.326c-1.075,-0.614 -1.61,-1.749 -1.319,-2.955c0.112,-0.459 0.304,-0.933 0.583,-1.309c1.865,-2.505 1.301,-5.315 1.038,-8.079c-0.033,-0.353 -0.279,-0.722 -0.515,-1.013c-1.149,-1.415 -2.359,-2.775 -3.708,-3.943c-0.777,0.306 -0.497,0.85 -0.493,1.282c0.011,0.87 0.188,1.757 0.071,2.605c-0.13,0.938 -0.377,1.913 -0.816,2.745c-0.649,1.232 -2.249,1.664 -3.55,1.15c-1.151,-0.454 -1.968,-1.75 -1.818,-3.017c0.069,-0.569 0.297,-1.117 0.442,-1.678c0.866,-3.363 -0.229,-6.286 -2.03,-9.051c-0.052,-0.081 -0.113,-0.158 -0.176,-0.231c-0.814,-0.931 -3.573,-2.251 -5.309,-2.537c0.216,1.307 0.438,2.608 0.645,3.913c0.076,0.476 0.164,0.959 0.164,1.439c0.001,1.73 -0.761,2.831 -2.257,3.33c-0.86,0.286 -1.623,0.132 -1.997,-0.661c-0.49,-1.035 -0.834,-2.148 -1.14,-3.257c-0.335,-1.209 -0.465,-2.476 -0.839,-3.671c-1.37,-4.378 -4.594,-5.342 -8.715,-4.534c-1.715,0.336 -3.059,1.3 -3.691,2.956c-0.581,1.523 -0.966,3.123 -1.435,4.691c-0.357,1.196 -0.607,2.441 -1.104,3.577c-0.466,1.067 -1.352,1.269 -2.431,0.819c-1.487,-0.62 -2.208,-1.934 -2.024,-3.777c0.086,-0.865 0.211,-1.729 0.381,-2.581c0.146,-0.733 0.38,-1.448 0.59,-2.222c-3.019,0.431 -5.047,1.784 -6.34,3.991c-1.546,2.639 -2.125,5.377 -1.151,8.348c0.12,0.367 0.245,0.743 0.285,1.123c0.137,1.287 -0.644,2.573 -1.799,3.03c-1.298,0.513 -2.794,0.05 -3.583,-1.128c-0.616,-0.919 -0.797,-1.959 -0.793,-3.043c0.003,-1.128 0,-2.255 0,-3.468c-1.55,0.913 -3.98,3.169 -4.397,4.192c-0.25,0.612 -0.368,1.305 -0.408,1.971c-0.145,2.4 -0.378,4.822 1.302,6.898c0.29,0.358 0.446,0.865 0.543,1.327c0.214,1.037 -0.33,2.132 -1.282,2.713c-0.913,0.556 -1.829,0.543 -2.74,-0.021c-0.862,-0.537 -1.407,-1.326 -1.716,-2.266c-0.268,-0.818 -0.459,-1.662 -0.753,-2.754c-0.39,0.536 -0.717,0.864 -0.902,1.257c-1.9,4.056 -3.279,8.265 -3.671,12.758c-0.092,1.06 -0.196,2.127 -0.411,3.166c-0.278,1.348 -1.467,2.248 -2.693,2.167c-1.244,-0.083 -2.367,-1.091 -2.481,-2.439c-0.089,-1.051 -0.01,-2.128 0.104,-3.182c0.757,-7.048 3.051,-13.585 6.839,-19.553c6.031,-9.5 14.207,-16.526 24.625,-20.875c0.802,-0.335 1.649,-0.566 2.445,-0.913c2.183,-0.949 4.285,-0.834 6.445,0.168c1.12,0.519 2.365,0.856 3.588,1.044c1.76,0.27 3.474,-0.114 5.056,-0.944c2.207,-1.158 4.384,-1.094 6.713,-0.251c8.756,3.171 16.115,8.317 22.193,15.343c5.626,6.502 9.405,13.917 11.04,22.378c0.348,1.802 0.537,3.638 0.71,5.467c0.063,0.652 -0.036,1.359 -0.232,1.99c-0.327,1.058 -1.38,1.757 -2.421,1.768c-1.023,0.01 -2.118,-0.685 -2.428,-1.742c-0.269,-0.917 -0.392,-1.891 -0.469,-2.848c-0.376,-4.69 -1.713,-9.11 -3.688,-13.354c-0.197,-0.423 -0.481,-0.806 -0.91,-1.509Z" style="fill:#657c34;fill-rule:nonzero;"/><path d="M89.618,164.828c-4.56,0.162 -8.681,0.159 -12.937,0.008c0.189,-3.025 1.222,-5.628 1.724,-8.429c3.051,-0.816 5.983,-0.629 9.009,-0.157c1.016,2.661 1.405,5.415 2.204,8.578Z" style="fill:#657c34;fill-rule:nonzero;"/><path d="M83.411,138.867c1.59,3.717 3.091,7.352 3.671,11.273c-2.332,0.643 -4.368,0.674 -7.259,0.115c0.46,-4.022 2.116,-7.654 3.588,-11.388Z" style="fill:#87a03b;fill-rule:nonzero;"/><path d="M61.563,107.871c0,0.376 0.047,0.818 -0.008,1.249c-0.201,1.569 -2.041,2.36 -3.328,1.449c-2.007,-1.424 -1.802,-4.53 0.379,-5.637c0.615,-0.312 1.261,-0.336 1.908,-0.094c0.743,0.277 1.177,0.869 1.175,1.665c-0.001,0.435 -0.077,0.869 -0.126,1.368Z" style="fill:#77993c;fill-rule:nonzero;"/><path d="M64.076,88.827c-0.156,0.668 -0.208,1.346 -0.471,1.929c-0.718,1.591 -2.704,1.737 -3.738,0.32c-1.219,-1.668 -0.615,-4.164 1.225,-5.065c1.062,-0.52 2.093,-0.182 2.523,0.91c0.236,0.6 0.311,1.263 0.461,1.906Z" style="fill:#77993c;fill-rule:nonzero;"/><path d="M59.243,94.58c-0.029,0.15 -0.058,0.522 -0.171,0.865c-0.255,0.776 -0.861,1.164 -1.625,1.318c-0.727,0.146 -1.284,-0.167 -1.733,-0.717c-1.025,-1.253 -1.146,-3.241 -0.276,-4.539c0.667,-0.997 1.753,-1.141 2.635,-0.348c0.777,0.698 1.2,1.854 1.17,3.421Z" style="fill:#77993c;fill-rule:nonzero;"/><path d="M62.888,99.281c-0.254,0.691 -0.472,1.546 -0.873,2.303c-0.448,0.847 -1.191,1.1 -2.034,0.9c-0.826,-0.194 -1.415,-0.81 -1.492,-1.68c-0.11,-1.255 -0.057,-2.479 0.81,-3.532c1.022,-1.244 2.504,-1.106 3.139,0.353c0.2,0.461 0.271,0.979 0.45,1.656Z" style="fill:#77993c;fill-rule:nonzero;"/><path d="M67.036,94.149c-0.059,0.483 -0.07,1.153 -0.24,1.777c-0.187,0.689 -0.758,1.079 -1.453,1.178c-0.704,0.103 -1.293,-0.173 -1.698,-0.774c-0.985,-1.462 -0.699,-3.689 0.612,-4.815c1.038,-0.89 2.42,-0.423 2.666,0.928c0.092,0.5 0.072,1.02 0.113,1.706Z" style="fill:#77993c;fill-rule:nonzero;"/><path d="M69.104,80.076c-0.118,0.133 -0.302,0.484 -0.59,0.636c-0.714,0.375 -1.467,0.682 -2.221,0.971c-0.806,0.307 -1.386,0.796 -1.662,1.639c-0.112,0.343 -0.287,0.685 -0.51,0.968c-0.289,0.367 -0.699,0.536 -1.177,0.359c-0.488,-0.181 -0.793,-0.723 -0.666,-1.249c0.377,-1.571 1.117,-2.878 2.677,-3.567c0.674,-0.297 1.33,-0.64 2.022,-0.885c0.401,-0.144 0.858,-0.194 1.287,-0.177c0.514,0.019 0.916,0.59 0.84,1.305Z" style="fill:#77993c;fill-rule:nonzero;"/><path d="M56.949,102.453c-0.013,0.891 -0.313,1.405 -0.923,1.61c-0.656,0.222 -1.416,-0.06 -1.889,-0.756c-0.891,-1.316 -0.847,-2.77 -0.469,-4.216c0.199,-0.764 1.32,-1.05 2.021,-0.621c0.606,0.373 0.886,0.953 1.022,1.615c0.06,0.285 0.06,0.58 0.087,0.871c0.052,0.509 0.103,1.018 0.151,1.497Z" style="fill:#77993c;fill-rule:nonzero;"/><path d="M66.241,103.37c-0.072,0.413 -0.109,1.004 -0.285,1.551c-0.195,0.6 -0.697,0.928 -1.331,0.977c-0.532,0.04 -1.102,-0.385 -1.329,-0.966c-0.472,-1.208 -0.222,-2.291 0.602,-3.26c0.36,-0.422 0.833,-0.592 1.375,-0.466c0.581,0.132 0.804,0.585 0.882,1.123c0.042,0.288 0.049,0.581 0.086,1.041Z" style="fill:#77993c;fill-rule:nonzero;"/><path d="M104.79,107.871c0,0.376 -0.046,0.818 0.008,1.249c0.202,1.569 2.041,2.36 3.328,1.449c2.008,-1.424 1.803,-4.53 -0.379,-5.637c-0.613,-0.312 -1.26,-0.336 -1.907,-0.094c-0.745,0.277 -1.177,0.869 -1.175,1.665c0.001,0.435 0.077,0.869 0.125,1.368Z" style="fill:#87a03b;fill-rule:nonzero;"/><path d="M102.278,88.827c0.156,0.668 0.207,1.346 0.47,1.929c0.718,1.591 2.705,1.737 3.739,0.32c1.218,-1.668 0.614,-4.164 -1.226,-5.065c-1.061,-0.52 -2.093,-0.182 -2.523,0.91c-0.235,0.6 -0.31,1.263 -0.46,1.906Z" style="fill:#87a03b;fill-rule:nonzero;"/><path d="M107.11,94.58c0.029,0.15 0.059,0.522 0.172,0.865c0.255,0.776 0.861,1.164 1.624,1.318c0.727,0.146 1.284,-0.167 1.734,-0.717c1.025,-1.253 1.145,-3.241 0.276,-4.539c-0.668,-0.997 -1.753,-1.141 -2.635,-0.348c-0.777,0.698 -1.2,1.854 -1.171,3.421Z" style="fill:#87a03b;fill-rule:nonzero;"/><path d="M103.465,99.281c0.255,0.691 0.472,1.546 0.873,2.303c0.45,0.847 1.192,1.1 2.036,0.9c0.824,-0.194 1.413,-0.81 1.49,-1.68c0.11,-1.255 0.058,-2.479 -0.809,-3.532c-1.023,-1.244 -2.504,-1.106 -3.139,0.353c-0.2,0.461 -0.272,0.979 -0.451,1.656Z" style="fill:#87a03b;fill-rule:nonzero;"/><path d="M99.317,94.149c0.061,0.483 0.07,1.153 0.241,1.777c0.187,0.689 0.758,1.079 1.452,1.178c0.705,0.103 1.293,-0.173 1.698,-0.774c0.985,-1.462 0.7,-3.689 -0.611,-4.815c-1.038,-0.89 -2.42,-0.423 -2.667,0.928c-0.091,0.5 -0.071,1.02 -0.113,1.706Z" style="fill:#87a03b;fill-rule:nonzero;"/><path d="M97.251,80.076c0.117,0.133 0.301,0.484 0.589,0.636c0.713,0.375 1.466,0.682 2.221,0.971c0.805,0.307 1.386,0.796 1.662,1.639c0.113,0.343 0.287,0.685 0.51,0.968c0.289,0.367 0.7,0.536 1.177,0.359c0.488,-0.181 0.792,-0.723 0.665,-1.249c-0.378,-1.571 -1.116,-2.878 -2.677,-3.567c-0.673,-0.297 -1.33,-0.64 -2.021,-0.885c-0.402,-0.144 -0.86,-0.194 -1.288,-0.177c-0.515,0.019 -0.915,0.59 -0.838,1.305Z" style="fill:#87a03b;fill-rule:nonzero;"/><path d="M109.404,102.453c0.013,0.891 0.313,1.405 0.923,1.61c0.657,0.222 1.417,-0.06 1.888,-0.756c0.892,-1.316 0.849,-2.77 0.471,-4.216c-0.199,-0.764 -1.321,-1.05 -2.022,-0.621c-0.607,0.373 -0.885,0.953 -1.023,1.615c-0.058,0.285 -0.058,0.58 -0.088,0.871c-0.05,0.509 -0.101,1.018 -0.149,1.497Z" style="fill:#87a03b;fill-rule:nonzero;"/><path d="M100.112,103.37c0.072,0.413 0.109,1.004 0.286,1.551c0.194,0.6 0.696,0.928 1.329,0.977c0.533,0.04 1.102,-0.385 1.331,-0.966c0.472,-1.208 0.221,-2.291 -0.603,-3.26c-0.36,-0.422 -0.833,-0.592 -1.375,-0.466c-0.58,0.132 -0.803,0.585 -0.881,1.123c-0.042,0.288 -0.05,0.581 -0.087,1.041Z" style="fill:#87a03b;fill-rule:nonzero;"/></svg>